<svg xmlns="http://www.w3.org/2000/svg" xmlns:xlink="http://www.w3.org/1999/xlink" width="348" zoomAndPan="magnify" viewBox="0 0 261 83.999999" height="112" preserveAspectRatio="xMidYMid meet" version="1.0"><defs><g/><clipPath id="d7ed1e8175"><path d="M 100.613281 21.34375 L 106.746094 21.34375 L 106.746094 27.640625 L 100.613281 27.640625 Z M 100.613281 21.34375 " clip-rule="nonzero"/></clipPath><clipPath id="98a6acf6b9"><path d="M 103.679688 21.34375 C 101.988281 21.34375 100.613281 22.75 100.613281 24.484375 C 100.613281 26.21875 101.988281 27.625 103.679688 27.625 C 105.371094 27.625 106.746094 26.21875 106.746094 24.484375 C 106.746094 22.75 105.371094 21.34375 103.679688 21.34375 Z M 103.679688 21.34375 " clip-rule="nonzero"/></clipPath><clipPath id="7bbc3e158f"><path d="M 0 3.070312 L 65.25 3.070312 L 65.25 71.320312 L 0 71.320312 Z M 0 3.070312 " clip-rule="nonzero"/></clipPath><clipPath id="bc2447c408"><path d="M 37.484375 34.871094 L 8.359375 34.871094 C 7.230469 34.871094 6.410156 33.796875 6.714844 32.710938 L 14.710938 4.320312 C 14.917969 3.585938 15.589844 3.078125 16.355469 3.078125 L 45.476562 3.078125 C 46.609375 3.078125 47.425781 4.152344 47.121094 5.238281 L 39.125 33.628906 C 38.917969 34.363281 38.246094 34.871094 37.484375 34.871094 Z M 18.566406 56.300781 L 22.683594 41.683594 C 22.988281 40.597656 22.171875 39.523438 21.042969 39.523438 L 6.070312 39.523438 C 5.304688 39.523438 4.632812 40.03125 4.429688 40.765625 L 0.3125 55.382812 C 0.00390625 56.464844 0.824219 57.542969 1.953125 57.542969 L 16.925781 57.542969 C 17.6875 57.542969 18.359375 57.035156 18.566406 56.300781 Z M 26.140625 40.765625 L 18.144531 69.15625 C 17.839844 70.238281 18.660156 71.3125 19.789062 71.3125 L 48.914062 71.3125 C 49.675781 71.3125 50.347656 70.808594 50.554688 70.074219 L 58.550781 41.683594 C 58.855469 40.597656 58.039062 39.523438 56.90625 39.523438 L 27.785156 39.523438 C 27.019531 39.523438 26.347656 40.03125 26.140625 40.765625 Z M 46.699219 18.09375 L 42.582031 32.710938 C 42.277344 33.796875 43.09375 34.871094 44.226562 34.871094 L 59.195312 34.871094 C 59.960938 34.871094 60.632812 34.363281 60.839844 33.628906 L 64.957031 19.011719 C 65.261719 17.925781 64.441406 16.851562 63.3125 16.851562 L 48.34375 16.851562 C 47.578125 16.851562 46.90625 17.359375 46.699219 18.09375 Z M 46.699219 18.09375 " clip-rule="nonzero"/></clipPath><linearGradient x1="114.296447" gradientTransform="matrix(0.136965, 0, 0, 0.136469, 0.246537, 3.079691)" y1="-47.633958" x2="358.610864" gradientUnits="userSpaceOnUse" y2="547.607253" id="5923be2bd6"><stop stop-opacity="1" stop-color="rgb(0%, 98.799133%, 65.899658%)" offset="0"/><stop stop-opacity="1" stop-color="rgb(0%, 98.799133%, 65.899658%)" offset="0.0625"/><stop stop-opacity="1" stop-color="rgb(0.0213623%, 98.773193%, 65.965271%)" offset="0.09375"/><stop stop-opacity="1" stop-color="rgb(0.100708%, 98.677063%, 66.210938%)" offset="0.101562"/><stop stop-opacity="1" stop-color="rgb(0.216675%, 98.536682%, 66.571045%)" offset="0.109375"/><stop stop-opacity="1" stop-color="rgb(0.332642%, 98.396301%, 66.929626%)" offset="0.117187"/><stop stop-opacity="1" stop-color="rgb(0.448608%, 98.25592%, 67.289734%)" offset="0.125"/><stop stop-opacity="1" stop-color="rgb(0.564575%, 98.117065%, 67.649841%)" offset="0.132812"/><stop stop-opacity="1" stop-color="rgb(0.679016%, 97.976685%, 68.008423%)" offset="0.140625"/><stop stop-opacity="1" stop-color="rgb(0.794983%, 97.836304%, 68.36853%)" offset="0.148438"/><stop stop-opacity="1" stop-color="rgb(0.91095%, 97.695923%, 68.727112%)" offset="0.15625"/><stop stop-opacity="1" stop-color="rgb(1.026917%, 97.555542%, 69.087219%)" offset="0.164062"/><stop stop-opacity="1" stop-color="rgb(1.142883%, 97.415161%, 69.445801%)" offset="0.171875"/><stop stop-opacity="1" stop-color="rgb(1.25885%, 97.27478%, 69.805908%)" offset="0.179688"/><stop stop-opacity="1" stop-color="rgb(1.374817%, 97.135925%, 70.16449%)" offset="0.1875"/><stop stop-opacity="1" stop-color="rgb(1.490784%, 96.995544%, 70.524597%)" offset="0.195312"/><stop stop-opacity="1" stop-color="rgb(1.60675%, 96.855164%, 70.883179%)" offset="0.203125"/><stop stop-opacity="1" stop-color="rgb(1.722717%, 96.714783%, 71.243286%)" offset="0.210938"/><stop stop-opacity="1" stop-color="rgb(1.838684%, 96.574402%, 71.603394%)" offset="0.21875"/><stop stop-opacity="1" stop-color="rgb(1.954651%, 96.434021%, 71.961975%)" offset="0.226562"/><stop stop-opacity="1" stop-color="rgb(2.070618%, 96.29364%, 72.322083%)" offset="0.234375"/><stop stop-opacity="1" stop-color="rgb(2.186584%, 96.153259%, 72.680664%)" offset="0.242188"/><stop stop-opacity="1" stop-color="rgb(2.302551%, 96.014404%, 73.040771%)" offset="0.25"/><stop stop-opacity="1" stop-color="rgb(2.418518%, 95.874023%, 73.399353%)" offset="0.257813"/><stop stop-opacity="1" stop-color="rgb(2.534485%, 95.733643%, 73.75946%)" offset="0.265625"/><stop stop-opacity="1" stop-color="rgb(2.650452%, 95.593262%, 74.118042%)" offset="0.273438"/><stop stop-opacity="1" stop-color="rgb(2.766418%, 95.452881%, 74.478149%)" offset="0.281112"/><stop stop-opacity="1" stop-color="rgb(2.824402%, 95.38269%, 74.658203%)" offset="0.28125"/><stop stop-opacity="1" stop-color="rgb(2.882385%, 95.3125%, 74.836731%)" offset="0.289062"/><stop stop-opacity="1" stop-color="rgb(2.998352%, 95.172119%, 75.196838%)" offset="0.296875"/><stop stop-opacity="1" stop-color="rgb(3.114319%, 95.031738%, 75.556946%)" offset="0.304688"/><stop stop-opacity="1" stop-color="rgb(3.230286%, 94.892883%, 75.915527%)" offset="0.3125"/><stop stop-opacity="1" stop-color="rgb(3.346252%, 94.752502%, 76.275635%)" offset="0.320312"/><stop stop-opacity="1" stop-color="rgb(3.462219%, 94.612122%, 76.634216%)" offset="0.328125"/><stop stop-opacity="1" stop-color="rgb(3.578186%, 94.471741%, 76.994324%)" offset="0.335938"/><stop stop-opacity="1" stop-color="rgb(3.694153%, 94.33136%, 77.352905%)" offset="0.34375"/><stop stop-opacity="1" stop-color="rgb(3.81012%, 94.190979%, 77.713013%)" offset="0.351563"/><stop stop-opacity="1" stop-color="rgb(3.926086%, 94.050598%, 78.071594%)" offset="0.359375"/><stop stop-opacity="1" stop-color="rgb(4.042053%, 93.911743%, 78.431702%)" offset="0.367188"/><stop stop-opacity="1" stop-color="rgb(4.15802%, 93.771362%, 78.790283%)" offset="0.375"/><stop stop-opacity="1" stop-color="rgb(4.273987%, 93.630981%, 79.150391%)" offset="0.382812"/><stop stop-opacity="1" stop-color="rgb(4.389954%, 93.490601%, 79.510498%)" offset="0.390625"/><stop stop-opacity="1" stop-color="rgb(4.50592%, 93.35022%, 79.86908%)" offset="0.398438"/><stop stop-opacity="1" stop-color="rgb(4.621887%, 93.209839%, 80.229187%)" offset="0.40625"/><stop stop-opacity="1" stop-color="rgb(4.737854%, 93.069458%, 80.587769%)" offset="0.414063"/><stop stop-opacity="1" stop-color="rgb(4.853821%, 92.929077%, 80.947876%)" offset="0.421875"/><stop stop-opacity="1" stop-color="rgb(4.969788%, 92.790222%, 81.306458%)" offset="0.429688"/><stop stop-opacity="1" stop-color="rgb(5.085754%, 92.649841%, 81.666565%)" offset="0.4375"/><stop stop-opacity="1" stop-color="rgb(5.201721%, 92.50946%, 82.025146%)" offset="0.445312"/><stop stop-opacity="1" stop-color="rgb(5.317688%, 92.36908%, 82.385254%)" offset="0.453125"/><stop stop-opacity="1" stop-color="rgb(5.433655%, 92.228699%, 82.743835%)" offset="0.460938"/><stop stop-opacity="1" stop-color="rgb(5.549622%, 92.088318%, 83.103943%)" offset="0.46875"/><stop stop-opacity="1" stop-color="rgb(5.665588%, 91.947937%, 83.46405%)" offset="0.476563"/><stop stop-opacity="1" stop-color="rgb(5.781555%, 91.807556%, 83.822632%)" offset="0.484375"/><stop stop-opacity="1" stop-color="rgb(5.897522%, 91.668701%, 84.182739%)" offset="0.492188"/><stop stop-opacity="1" stop-color="rgb(6.013489%, 91.52832%, 84.541321%)" offset="0.5"/><stop stop-opacity="1" stop-color="rgb(6.129456%, 91.387939%, 84.901428%)" offset="0.507813"/><stop stop-opacity="1" stop-color="rgb(6.245422%, 91.247559%, 85.26001%)" offset="0.515625"/><stop stop-opacity="1" stop-color="rgb(6.361389%, 91.107178%, 85.620117%)" offset="0.523438"/><stop stop-opacity="1" stop-color="rgb(6.477356%, 90.966797%, 85.978699%)" offset="0.53125"/><stop stop-opacity="1" stop-color="rgb(6.593323%, 90.826416%, 86.338806%)" offset="0.539062"/><stop stop-opacity="1" stop-color="rgb(6.70929%, 90.687561%, 86.697388%)" offset="0.546875"/><stop stop-opacity="1" stop-color="rgb(6.825256%, 90.54718%, 87.057495%)" offset="0.554688"/><stop stop-opacity="1" stop-color="rgb(6.941223%, 90.406799%, 87.417603%)" offset="0.5625"/><stop stop-opacity="1" stop-color="rgb(7.05719%, 90.266418%, 87.776184%)" offset="0.570312"/><stop stop-opacity="1" stop-color="rgb(7.171631%, 90.126038%, 88.136292%)" offset="0.578125"/><stop stop-opacity="1" stop-color="rgb(7.287598%, 89.985657%, 88.494873%)" offset="0.585938"/><stop stop-opacity="1" stop-color="rgb(7.403564%, 89.845276%, 88.85498%)" offset="0.59375"/><stop stop-opacity="1" stop-color="rgb(7.519531%, 89.704895%, 89.213562%)" offset="0.601563"/><stop stop-opacity="1" stop-color="rgb(7.635498%, 89.56604%, 89.573669%)" offset="0.609375"/><stop stop-opacity="1" stop-color="rgb(7.751465%, 89.425659%, 89.932251%)" offset="0.617188"/><stop stop-opacity="1" stop-color="rgb(7.867432%, 89.285278%, 90.292358%)" offset="0.625"/><stop stop-opacity="1" stop-color="rgb(7.983398%, 89.144897%, 90.65094%)" offset="0.632812"/><stop stop-opacity="1" stop-color="rgb(8.099365%, 89.004517%, 91.011047%)" offset="0.640625"/><stop stop-opacity="1" stop-color="rgb(8.215332%, 88.864136%, 91.371155%)" offset="0.648438"/><stop stop-opacity="1" stop-color="rgb(8.331299%, 88.723755%, 91.729736%)" offset="0.65625"/><stop stop-opacity="1" stop-color="rgb(8.447266%, 88.583374%, 92.089844%)" offset="0.664062"/><stop stop-opacity="1" stop-color="rgb(8.563232%, 88.444519%, 92.448425%)" offset="0.671875"/><stop stop-opacity="1" stop-color="rgb(8.679199%, 88.304138%, 92.808533%)" offset="0.679688"/><stop stop-opacity="1" stop-color="rgb(8.795166%, 88.163757%, 93.167114%)" offset="0.6875"/><stop stop-opacity="1" stop-color="rgb(8.911133%, 88.023376%, 93.527222%)" offset="0.695313"/><stop stop-opacity="1" stop-color="rgb(9.0271%, 87.882996%, 93.885803%)" offset="0.703125"/><stop stop-opacity="1" stop-color="rgb(9.143066%, 87.742615%, 94.245911%)" offset="0.710938"/><stop stop-opacity="1" stop-color="rgb(9.259033%, 87.602234%, 94.604492%)" offset="0.71875"/><stop stop-opacity="1" stop-color="rgb(9.375%, 87.463379%, 94.9646%)" offset="0.718888"/><stop stop-opacity="1" stop-color="rgb(9.432983%, 87.393188%, 95.144653%)" offset="0.726563"/><stop stop-opacity="1" stop-color="rgb(9.490967%, 87.322998%, 95.324707%)" offset="0.734375"/><stop stop-opacity="1" stop-color="rgb(9.606934%, 87.182617%, 95.683289%)" offset="0.742188"/><stop stop-opacity="1" stop-color="rgb(9.7229%, 87.042236%, 96.043396%)" offset="0.75"/><stop stop-opacity="1" stop-color="rgb(9.838867%, 86.901855%, 96.401978%)" offset="0.757812"/><stop stop-opacity="1" stop-color="rgb(9.954834%, 86.761475%, 96.762085%)" offset="0.765625"/><stop stop-opacity="1" stop-color="rgb(10.070801%, 86.621094%, 97.120667%)" offset="0.773438"/><stop stop-opacity="1" stop-color="rgb(10.186768%, 86.480713%, 97.480774%)" offset="0.78125"/><stop stop-opacity="1" stop-color="rgb(10.302734%, 86.341858%, 97.839355%)" offset="0.789062"/><stop stop-opacity="1" stop-color="rgb(10.418701%, 86.201477%, 98.199463%)" offset="0.796875"/><stop stop-opacity="1" stop-color="rgb(10.534668%, 86.061096%, 98.558044%)" offset="0.804688"/><stop stop-opacity="1" stop-color="rgb(10.650635%, 85.920715%, 98.918152%)" offset="0.8125"/><stop stop-opacity="1" stop-color="rgb(10.766602%, 85.780334%, 99.278259%)" offset="0.820313"/><stop stop-opacity="1" stop-color="rgb(10.882568%, 85.639954%, 99.636841%)" offset="0.828125"/><stop stop-opacity="1" stop-color="rgb(10.969543%, 85.534668%, 99.908447%)" offset="0.84375"/><stop stop-opacity="1" stop-color="rgb(10.998535%, 85.499573%, 100%)" offset="0.875"/><stop stop-opacity="1" stop-color="rgb(10.998535%, 85.499573%, 100%)" offset="1"/></linearGradient></defs><g fill="#ffffff" fill-opacity="1"><g transform="translate(67.615514, 57.339436)"><g><path d="M 7.03125 0.25 C 6.40625 0.25 5.875 0.0351562 5.4375 -0.390625 C 5.007812 -0.828125 4.796875 -1.359375 4.796875 -1.984375 L 4.796875 -32.265625 C 4.796875 -32.890625 5.007812 -33.425781 5.4375 -33.875 C 5.875 -34.320312 6.40625 -34.546875 7.03125 -34.546875 L 26.28125 -34.546875 C 26.875 -34.546875 27.375 -34.335938 27.78125 -33.921875 C 28.195312 -33.503906 28.40625 -33 28.40625 -32.40625 C 28.40625 -31.8125 28.195312 -31.316406 27.78125 -30.921875 C 27.375 -30.523438 26.875 -30.328125 26.28125 -30.328125 L 9.296875 -30.328125 L 9.296875 -19.390625 L 24.546875 -19.390625 C 25.140625 -19.390625 25.640625 -19.179688 26.046875 -18.765625 C 26.460938 -18.359375 26.671875 -17.859375 26.671875 -17.265625 C 26.671875 -16.671875 26.460938 -16.175781 26.046875 -15.78125 C 25.640625 -15.382812 25.140625 -15.1875 24.546875 -15.1875 L 9.296875 -15.1875 L 9.296875 -1.984375 C 9.296875 -1.359375 9.070312 -0.828125 8.625 -0.390625 C 8.1875 0.0351562 7.65625 0.25 7.03125 0.25 Z M 7.03125 0.25 "/></g></g></g><g fill="#ffffff" fill-opacity="1"><g transform="translate(97.69727, 57.339436)"><g><path d="M 6.03125 -30.390625 C 5.34375 -30.390625 4.75 -30.632812 4.25 -31.125 C 3.757812 -31.625 3.515625 -32.21875 3.515625 -32.90625 L 3.515625 -33.109375 C 3.515625 -33.796875 3.757812 -34.382812 4.25 -34.875 C 4.75 -35.375 5.34375 -35.625 6.03125 -35.625 L 6.328125 -35.625 C 7.023438 -35.625 7.617188 -35.375 8.109375 -34.875 C 8.609375 -34.382812 8.859375 -33.796875 8.859375 -33.109375 L 8.859375 -32.90625 C 8.859375 -32.21875 8.609375 -31.625 8.109375 -31.125 C 7.617188 -30.632812 7.023438 -30.390625 6.328125 -30.390625 Z M 6.140625 0.25 C 5.515625 0.25 4.984375 0.0351562 4.546875 -0.390625 C 4.117188 -0.828125 3.90625 -1.359375 3.90625 -1.984375 L 3.90625 -23.203125 C 3.90625 -23.828125 4.117188 -24.363281 4.546875 -24.8125 C 4.984375 -25.257812 5.515625 -25.484375 6.140625 -25.484375 C 6.796875 -25.484375 7.335938 -25.269531 7.765625 -24.84375 C 8.191406 -24.414062 8.40625 -23.867188 8.40625 -23.203125 L 8.40625 -1.984375 C 8.40625 -1.359375 8.179688 -0.828125 7.734375 -0.390625 C 7.296875 0.0351562 6.765625 0.25 6.140625 0.25 Z M 6.140625 0.25 "/></g></g></g><g fill="#ffffff" fill-opacity="1"><g transform="translate(110.016937, 57.339436)"><g><path d="M 6.140625 0.25 C 5.515625 0.25 4.984375 0.0351562 4.546875 -0.390625 C 4.117188 -0.828125 3.90625 -1.359375 3.90625 -1.984375 L 3.90625 -23.203125 C 3.90625 -23.828125 4.117188 -24.363281 4.546875 -24.8125 C 4.984375 -25.257812 5.515625 -25.484375 6.140625 -25.484375 C 6.765625 -25.484375 7.296875 -25.257812 7.734375 -24.8125 C 8.179688 -24.363281 8.40625 -23.828125 8.40625 -23.203125 L 8.40625 -21.171875 C 9.664062 -22.554688 11.019531 -23.660156 12.46875 -24.484375 C 13.914062 -25.316406 15.628906 -25.734375 17.609375 -25.734375 C 19.429688 -25.734375 21.007812 -25.300781 22.34375 -24.4375 C 23.675781 -23.582031 24.695312 -22.410156 25.40625 -20.921875 C 26.113281 -19.441406 26.46875 -17.8125 26.46875 -16.03125 L 26.46875 -1.984375 C 26.46875 -1.359375 26.242188 -0.828125 25.796875 -0.390625 C 25.359375 0.0351562 24.828125 0.25 24.203125 0.25 C 23.566406 0.25 23.035156 0.0351562 22.609375 -0.390625 C 22.179688 -0.828125 21.96875 -1.359375 21.96875 -1.984375 L 21.96875 -15.53125 C 21.96875 -19.5625 20.15625 -21.578125 16.53125 -21.578125 C 14.875 -21.578125 13.394531 -21.144531 12.09375 -20.28125 C 10.789062 -19.425781 9.5625 -18.273438 8.40625 -16.828125 L 8.40625 -1.984375 C 8.40625 -1.359375 8.179688 -0.828125 7.734375 -0.390625 C 7.296875 0.0351562 6.765625 0.25 6.140625 0.25 Z M 6.140625 0.25 "/></g></g></g><g fill="#ffffff" fill-opacity="1"><g transform="translate(140.148165, 57.339436)"><g><path d="M 15.046875 0.25 C 14.421875 0.25 13.890625 0.0351562 13.453125 -0.390625 C 13.023438 -0.828125 12.8125 -1.359375 12.8125 -1.984375 L 12.8125 -30.328125 L 2.71875 -30.328125 C 2.125 -30.328125 1.628906 -30.523438 1.234375 -30.921875 C 0.835938 -31.316406 0.640625 -31.8125 0.640625 -32.40625 C 0.640625 -33 0.835938 -33.503906 1.234375 -33.921875 C 1.628906 -34.335938 2.125 -34.546875 2.71875 -34.546875 L 27.359375 -34.546875 C 27.953125 -34.546875 28.457031 -34.335938 28.875 -33.921875 C 29.289062 -33.503906 29.5 -33 29.5 -32.40625 C 29.5 -31.8125 29.289062 -31.316406 28.875 -30.921875 C 28.457031 -30.523438 27.953125 -30.328125 27.359375 -30.328125 L 17.3125 -30.328125 L 17.3125 -1.984375 C 17.3125 -1.359375 17.085938 -0.828125 16.640625 -0.390625 C 16.203125 0.0351562 15.671875 0.25 15.046875 0.25 Z M 15.046875 0.25 "/></g></g></g><g fill="#ffffff" fill-opacity="1"><g transform="translate(170.279394, 57.339436)"><g><path d="M 6.140625 0.25 C 5.515625 0.25 4.984375 0.0351562 4.546875 -0.390625 C 4.117188 -0.828125 3.90625 -1.359375 3.90625 -1.984375 L 3.90625 -23.203125 C 3.90625 -23.828125 4.117188 -24.363281 4.546875 -24.8125 C 4.984375 -25.257812 5.515625 -25.484375 6.140625 -25.484375 C 6.765625 -25.484375 7.296875 -25.257812 7.734375 -24.8125 C 8.179688 -24.363281 8.40625 -23.828125 8.40625 -23.203125 L 8.40625 -21.078125 C 10.71875 -24.179688 13.3125 -25.734375 16.1875 -25.734375 L 16.421875 -25.734375 C 17.054688 -25.734375 17.578125 -25.519531 17.984375 -25.09375 C 18.398438 -24.664062 18.609375 -24.132812 18.609375 -23.5 C 18.609375 -22.875 18.390625 -22.363281 17.953125 -21.96875 C 17.523438 -21.570312 16.984375 -21.375 16.328125 -21.375 L 16.078125 -21.375 C 14.492188 -21.375 13.039062 -20.984375 11.71875 -20.203125 C 10.40625 -19.429688 9.300781 -18.367188 8.40625 -17.015625 L 8.40625 -1.984375 C 8.40625 -1.359375 8.179688 -0.828125 7.734375 -0.390625 C 7.296875 0.0351562 6.765625 0.25 6.140625 0.25 Z M 6.140625 0.25 "/></g></g></g><g fill="#ffffff" fill-opacity="1"><g transform="translate(189.22892, 57.339436)"><g><path d="M 10.34375 0.5 C 8.894531 0.5 7.550781 0.203125 6.3125 -0.390625 C 5.070312 -0.984375 4.085938 -1.847656 3.359375 -2.984375 C 2.640625 -4.128906 2.28125 -5.441406 2.28125 -6.921875 C 2.28125 -9.367188 3.242188 -11.316406 5.171875 -12.765625 C 7.097656 -14.210938 9.925781 -14.9375 13.65625 -14.9375 L 19.640625 -14.9375 L 19.640625 -15.34375 C 19.640625 -17.519531 19.101562 -19.082031 18.03125 -20.03125 C 16.957031 -20.988281 15.285156 -21.46875 13.015625 -21.46875 C 11.765625 -21.46875 10.648438 -21.367188 9.671875 -21.171875 C 8.703125 -20.972656 7.625 -20.675781 6.4375 -20.28125 C 6.164062 -20.21875 5.953125 -20.1875 5.796875 -20.1875 C 5.296875 -20.1875 4.863281 -20.367188 4.5 -20.734375 C 4.132812 -21.097656 3.953125 -21.539062 3.953125 -22.0625 C 3.953125 -22.957031 4.382812 -23.585938 5.25 -23.953125 C 8.050781 -25.140625 10.90625 -25.734375 13.8125 -25.734375 C 16.082031 -25.734375 18 -25.269531 19.5625 -24.34375 C 21.132812 -23.414062 22.289062 -22.21875 23.03125 -20.75 C 23.769531 -19.289062 24.140625 -17.703125 24.140625 -15.984375 L 24.140625 -1.984375 C 24.140625 -1.359375 23.914062 -0.828125 23.46875 -0.390625 C 23.03125 0.0351562 22.5 0.25 21.875 0.25 C 21.25 0.25 20.71875 0.0351562 20.28125 -0.390625 C 19.851562 -0.828125 19.640625 -1.359375 19.640625 -1.984375 L 19.640625 -3.265625 C 17.203125 -0.753906 14.101562 0.5 10.34375 0.5 Z M 12.03125 -3.46875 C 13.476562 -3.46875 14.878906 -3.820312 16.234375 -4.53125 C 17.585938 -5.238281 18.722656 -6.117188 19.640625 -7.171875 L 19.640625 -11.328125 L 14.25 -11.328125 C 9.269531 -11.328125 6.78125 -10.023438 6.78125 -7.421875 C 6.78125 -6.234375 7.179688 -5.273438 7.984375 -4.546875 C 8.796875 -3.828125 10.144531 -3.46875 12.03125 -3.46875 Z M 12.03125 -3.46875 "/></g></g></g><g fill="#ffffff" fill-opacity="1"><g transform="translate(217.034743, 57.339436)"><g><path d="M 6.140625 0.25 C 5.515625 0.25 4.984375 0.0351562 4.546875 -0.390625 C 4.117188 -0.828125 3.90625 -1.359375 3.90625 -1.984375 L 3.90625 -34.09375 C 3.90625 -34.71875 4.117188 -35.253906 4.546875 -35.703125 C 4.984375 -36.148438 5.515625 -36.375 6.140625 -36.375 C 6.765625 -36.375 7.296875 -36.148438 7.734375 -35.703125 C 8.179688 -35.253906 8.40625 -34.71875 8.40625 -34.09375 L 8.40625 -13.859375 L 20.1875 -24.75 C 20.6875 -25.175781 21.179688 -25.390625 21.671875 -25.390625 C 22.429688 -25.390625 22.984375 -25.171875 23.328125 -24.734375 C 23.671875 -24.304688 23.84375 -23.796875 23.84375 -23.203125 C 23.84375 -22.640625 23.566406 -22.082031 23.015625 -21.53125 L 15.890625 -15.140625 L 24.84375 -3.265625 C 25.175781 -2.835938 25.34375 -2.394531 25.34375 -1.9375 C 25.34375 -1.269531 25.125 -0.738281 24.6875 -0.34375 C 24.257812 0.0507812 23.71875 0.25 23.0625 0.25 C 22.726562 0.25 22.394531 0.164062 22.0625 0 C 21.738281 -0.164062 21.460938 -0.394531 21.234375 -0.6875 L 12.71875 -12.265625 L 8.40625 -8.359375 L 8.40625 -1.984375 C 8.40625 -1.359375 8.179688 -0.828125 7.734375 -0.390625 C 7.296875 0.0351562 6.765625 0.25 6.140625 0.25 Z M 6.140625 0.25 "/></g></g></g><g clip-path="url(#d7ed1e8175)"><g clip-path="url(#98a6acf6b9)"><path fill="#00faa8" d="M 100.613281 21.34375 L 106.746094 21.34375 L 106.746094 27.617188 L 100.613281 27.617188 Z M 100.613281 21.34375 " fill-opacity="1" fill-rule="nonzero"/></g></g><g clip-path="url(#7bbc3e158f)"><g clip-path="url(#bc2447c408)"><path fill="url(#5923be2bd6)" d="M 0.00390625 3.078125 L 0.00390625 71.3125 L 65.25 71.3125 L 65.25 3.078125 Z M 0.00390625 3.078125 " fill-rule="nonzero"/></g></g></svg>